<svg xmlns="http://www.w3.org/2000/svg" viewBox="0 0 521.13 567.89"><defs><style>.cls-1{fill:none;stroke:#000;stroke-miterlimit:10;stroke-width:18px;}</style></defs><title>Fichier 9</title><g id="Calque_2" data-name="Calque 2"><g id="Logo"><polygon points="298.95 55.99 378.94 0.7 382.01 84.94 298.95 55.99"/><path d="M378.59,1.4l3,83L299.77,55.88,378.59,1.4m.7-1.4L298.13,56.1l84.28,29.38L379.29,0Z"/><path class="cls-1" d="M269.21,161.48c-9-14.91-7.67-36.41,2.93-52.92,9.91-15.43,32.77-1.93,51.5-19.35,9.05-8.41,13.57-19.87,16-28.2"/><path d="M255.81,567.77c-47.6,0-94.2-7.41-134.76-21.41C81.14,532.59,48.87,513.09,27.71,490,7.67,468.11-1.76,443.32.45,418.31c2.87-32.65,14.34-66,34.09-99C52,290,76.1,261.23,104.15,236c53.25-47.84,115.67-78.75,159-78.75,44.08,0,109.21,33.53,162.06,83.44,28.11,26.56,51.6,56.57,67.91,86.8C511.63,361.76,521,395.83,521,428.78c0,20.62-7.71,40.09-22.91,57.88-14.17,16.58-34.46,31.3-60.3,43.76C388.57,554.15,322.24,567.77,255.81,567.77Zm7.81-390.47c-31.12,0-78.43,24.78-120.54,63.11-47.69,43.42-80.1,96.25-88.9,145C50.81,404,56.28,422,70.44,439c32.8,39.26,108.07,65.64,187.31,65.64,80.32,0,157.25-24.45,191.44-60.84,14.36-15.28,21.07-32.13,20-50.07-3-48-33.72-102.49-84.29-149.41C342.34,204.86,292.48,177.3,263.62,177.3Z"/><path d="M263.18,157.4c21.7,0,48.5,7.88,77.5,22.78S399,216.11,425.15,240.8c28.11,26.55,51.59,56.55,67.89,86.77,18.47,34.23,27.84,68.28,27.84,101.21,0,20.59-7.7,40-22.88,57.8-14.16,16.56-34.43,31.28-60.26,43.73-49.2,23.72-115.51,37.33-181.93,37.33-47.58,0-94.17-7.4-134.72-21.4C81.2,532.48,49,513,27.8,489.9,18,479.16,10.65,467.74,6.05,456A82.91,82.91,0,0,1,.57,418.32c2.87-32.63,14.34-65.93,34.08-99,17.48-29.25,41.54-58,69.59-83.24,53.22-47.82,115.61-78.71,158.94-78.71m-5.43,347.35c80.35,0,157.32-24.46,191.53-60.87,14.38-15.31,21.11-32.19,20-50.17-3-48.06-33.73-102.55-84.32-149.49-42.54-39.47-92.44-67-121.33-67-31.15,0-78.49,24.78-120.63,63.14-47.71,43.43-80.12,96.29-88.93,145-3.38,18.68,2.1,36.75,16.28,53.73,16.06,19.22,42.27,35.63,75.81,47.46,33.8,11.92,72.39,18.22,111.6,18.22m5.43-347.6c-86,0-250.69,123-262.86,261.15C-7,502,113.33,567.89,255.81,567.89c131.68,0,265.32-53.24,265.32-139.11,0-139.58-169.51-271.63-257.95-271.63ZM257.75,504.5c-113.46,0-215.34-53.35-203.45-119.12C74,276.31,201.77,177.43,263.62,177.43c56.07,0,198.55,106.49,205.4,216.3C473.28,462,362.6,504.5,257.75,504.5Z"/><ellipse cx="179.93" cy="329.44" rx="46.46" ry="44.27"/><path d="M179.93,285.42c25.48,0,46.21,19.75,46.21,44s-20.73,44-46.21,44-46.21-19.75-46.21-44,20.73-44,46.21-44m0-.5c-25.79,0-46.71,19.93-46.71,44.52S154.14,374,179.93,374s46.71-19.93,46.71-44.52-20.91-44.52-46.71-44.52Z"/><ellipse cx="329.39" cy="329.44" rx="46.46" ry="44.27"/><path d="M329.39,285.42c25.48,0,46.21,19.75,46.21,44s-20.73,44-46.21,44-46.2-19.75-46.2-44,20.73-44,46.2-44m0-.5c-25.79,0-46.7,19.93-46.7,44.52S303.6,374,329.39,374,376.1,354,376.1,329.44s-20.91-44.52-46.71-44.52Z"/></g></g></svg>