<svg xmlns="http://www.w3.org/2000/svg" xmlns:xlink="http://www.w3.org/1999/xlink" viewBox="0 0 252.99 247.01"><defs><style>.cls-1,.cls-12,.cls-9{fill:none;}.cls-2{isolation:isolate;}.cls-3{clip-path:url(#clip-path);}.cls-4{fill:#07437e;}.cls-5{mix-blend-mode:lighten;}.cls-6{clip-path:url(#clip-path-3);}.cls-7{fill:#e6007e;}.cls-8{clip-path:url(#clip-path-4);}.cls-9{stroke:#e6007e;stroke-width:11.13px;stroke-dasharray:41.77 30.64;}.cls-10{clip-path:url(#clip-path-5);}.cls-11{clip-path:url(#clip-path-6);}.cls-12{stroke:#07437e;stroke-width:4.15px;}.cls-13{clip-path:url(#clip-path-7);}.cls-14{clip-path:url(#clip-path-8);}.cls-15{clip-path:url(#clip-path-9);}</style><clipPath id="clip-path"><rect class="cls-1" x="15.59" y="16.35" width="222.36" height="214.66"/></clipPath><clipPath id="clip-path-3"><rect class="cls-1" x="6.59" y="47.88" width="67.12" height="51.12"/></clipPath><clipPath id="clip-path-4"><rect class="cls-1" x="197.98" y="15.35" width="29.13" height="116.17"/></clipPath><clipPath id="clip-path-5"><rect class="cls-1" x="217.21" y="15.35" width="29.13" height="116.17"/></clipPath><clipPath id="clip-path-6"><rect class="cls-1" x="33.75" y="192.96" width="27.92" height="6.15"/></clipPath><clipPath id="clip-path-7"><rect class="cls-1" x="41.75" y="175.04" width="6.15" height="27.92"/></clipPath><clipPath id="clip-path-8"><rect class="cls-1" x="173.63" y="173.75" width="23.95" height="6.15"/></clipPath><clipPath id="clip-path-9"><rect class="cls-1" x="232.8" y="147.32" width="6.15" height="36.88"/></clipPath></defs><title>Plan de travail 1</title><g class="cls-2"><g id="Calque_1" data-name="Calque 1"><g class="cls-3"><g class="cls-3"><path class="cls-4" d="M40.83,27.47h26.8a44.25,44.25,0,0,1,19,4A45.85,45.85,0,0,1,101,41.78a46.51,46.51,0,0,1,9.21,14.61,45.33,45.33,0,0,1-10.73,50,46.72,46.72,0,0,1-14.69,9.36,45.2,45.2,0,0,1-17.12,3.35v11.42H71a46.88,46.88,0,0,0,19.48-4.34,57,57,0,0,0,17.13-12,60.23,60.23,0,0,0,12.18-18,55,55,0,0,0,4.64-22.61,54.36,54.36,0,0,0-5.18-24.05,60.45,60.45,0,0,0-13.09-18A57.21,57.21,0,0,0,88.79,20.24,46.93,46.93,0,0,0,71,16.35H40.83Z"/><path class="cls-4" d="M175.61,127.55a38.1,38.1,0,0,0,20.3-20.3,37.08,37.08,0,0,0,3-14.73V16.35H187.44V92.52A26.22,26.22,0,0,1,171.26,117a26.9,26.9,0,0,1-10.53,2.06,26.68,26.68,0,0,1-18.86-7.71,26.68,26.68,0,0,1-7.7-18.85A26.72,26.72,0,0,1,136.23,82a25.91,25.91,0,0,1,14.12-14.12,26.45,26.45,0,0,1,10.38-2.06V54.36A37.63,37.63,0,0,0,133.79,65.5a38.75,38.75,0,0,0-8.09,12.14,37.28,37.28,0,0,0-3,14.88,36.9,36.9,0,0,0,3,14.73,38.75,38.75,0,0,0,8.09,12.14,38.31,38.31,0,0,0,41.82,8.16"/><g class="cls-5"><g class="cls-6"><path class="cls-7" d="M40.15,98A24.56,24.56,0,1,0,15.59,73.44,24.55,24.55,0,0,0,40.15,98"/></g></g><g class="cls-5"><g class="cls-8"><line class="cls-9" x1="212.55" y1="16.35" x2="212.55" y2="130.53"/></g></g><g class="cls-5"><g class="cls-10"><line class="cls-9" x1="231.77" y1="16.35" x2="231.77" y2="130.53"/></g></g><path class="cls-7" d="M236.06,221.73a4.9,4.9,0,0,1-1.56-1,4.91,4.91,0,0,1-1.42-3.45V205.38H238v-2.09h-7v14a6.7,6.7,0,0,0,.55,2.71,6.92,6.92,0,0,0,6.41,4.24V222.1a4.79,4.79,0,0,1-1.89-.37m-19-4.49a4.86,4.86,0,0,1,1.42-3.45,5,5,0,0,1,1.56-1.06,4.71,4.71,0,0,1,1.92-.39,4.78,4.78,0,0,1,1.92.39,5.07,5.07,0,0,1,1.56,1.06,4.8,4.8,0,0,1,1.41,3.45v7H229v-7a6.67,6.67,0,0,0-.55-2.71,7.25,7.25,0,0,0-1.52-2.22,7.1,7.1,0,0,0-2.22-1.51,6.87,6.87,0,0,0-5.41,0,7.08,7.08,0,0,0-2.21,1.5,7.37,7.37,0,0,0-1.5,2.22,6.72,6.72,0,0,0-.56,2.72ZM206,222.19a4.87,4.87,0,0,1-1.92-.38,4.58,4.58,0,0,1-1.54-1,4.68,4.68,0,0,1-1-1.54,4.94,4.94,0,0,1-.38-1.92,5,5,0,0,1,1.41-3.45,4.46,4.46,0,0,1,1.54-1,4.87,4.87,0,0,1,1.92-.38,5.37,5.37,0,0,1,1.89.33,5.66,5.66,0,0,1,1.56.89,4.1,4.1,0,0,1,1,1.31,3.51,3.51,0,0,1,.38,1.59H206v2.09h7v-1.34a6.65,6.65,0,0,0-.56-2.69,7.2,7.2,0,0,0-1.5-2.21,7.13,7.13,0,0,0-2.22-1.5,6.57,6.57,0,0,0-2.68-.56,6.64,6.64,0,0,0-2.71.56,7.13,7.13,0,0,0-2.22,1.5,7,7,0,0,0-1.48,2.21,6.9,6.9,0,0,0,0,5.4,6.87,6.87,0,0,0,1.48,2.21,6.94,6.94,0,0,0,4.93,2Zm-19.44-11a7.19,7.19,0,0,0-2.49,2.38,6.62,6.62,0,0,0-2.46-2.38,7,7,0,0,0-6.18-.36,7.17,7.17,0,0,0-2.21,1.49,7.08,7.08,0,0,0-1.5,2.21,6.64,6.64,0,0,0-.56,2.71h2.09a4.7,4.7,0,0,1,.38-1.92,4.6,4.6,0,0,1,1-1.55,4.93,4.93,0,0,1,1.56-1,4.87,4.87,0,0,1,1.92-.37,4.8,4.8,0,0,1,3.46,1.4,4.72,4.72,0,0,1,1,1.55,4.87,4.87,0,0,1,.38,1.92v7h2.08v-7a4.71,4.71,0,0,1,.39-1.92,5,5,0,0,1,1.06-1.55,5.24,5.24,0,0,1,1.55-1,4.79,4.79,0,0,1,1.89-.37,4.9,4.9,0,0,1,3.48,1.4,4.62,4.62,0,0,1,1.05,1.55,4.87,4.87,0,0,1,.38,1.92v7H197l.06-7a7.08,7.08,0,0,0-.58-2.71,7.36,7.36,0,0,0-1.51-2.2,7.13,7.13,0,0,0-2.22-1.5,6.84,6.84,0,0,0-2.73-.56,6.63,6.63,0,0,0-3.44.91m-24.5,11a4.94,4.94,0,0,1-1.92-.38,4.79,4.79,0,0,1-1.54-1,4.68,4.68,0,0,1-1-1.54,4.94,4.94,0,0,1-.38-1.92,5,5,0,0,1,1.41-3.45,4.66,4.66,0,0,1,1.54-1,4.94,4.94,0,0,1,1.92-.38,5.35,5.35,0,0,1,3.45,1.22,4,4,0,0,1,1,1.31,3.5,3.5,0,0,1,.37,1.59H162v2.09h7v-1.34a6.65,6.65,0,0,0-.56-2.69,7.11,7.11,0,0,0-3.71-3.71,6.79,6.79,0,0,0-5.4,0,7.2,7.2,0,0,0-2.21,1.5,7,7,0,0,0-1.49,2.21,7,7,0,0,0,0,5.4,6.92,6.92,0,0,0,6.41,4.24ZM143.39,210.7a7.08,7.08,0,0,0-2.21,1.5,6.84,6.84,0,0,0-1.49,2.21,6.64,6.64,0,0,0-.55,2.69V231h2.09V217.1a4.88,4.88,0,0,1,.38-1.9,4.83,4.83,0,0,1,1-1.55,4.58,4.58,0,0,1,1.54-1.05,4.87,4.87,0,0,1,1.92-.37,4.79,4.79,0,0,1,1.89.37,4.87,4.87,0,0,1,2.6,2.6,4.88,4.88,0,0,1,.38,1.9,4.94,4.94,0,0,1-.38,1.92,4.56,4.56,0,0,1-1,1.54A5,5,0,0,1,146.1,222v2.08a7,7,0,0,0,2.73-.54A6.78,6.78,0,0,0,151,222a7.12,7.12,0,0,0,1.47-2.21,6.9,6.9,0,0,0,0-5.4A7.12,7.12,0,0,0,151,212.2a7,7,0,0,0-2.21-1.5,6.84,6.84,0,0,0-2.73-.56,6.67,6.67,0,0,0-2.71.56m-16,0a7.08,7.08,0,0,0-2.21,1.5,7,7,0,0,0-1.49,2.21,6.81,6.81,0,0,0-.55,2.69V231h2.09V217.1a4.88,4.88,0,0,1,.38-1.9,4.83,4.83,0,0,1,1-1.55,4.58,4.58,0,0,1,1.54-1.05,4.87,4.87,0,0,1,1.92-.37,4.79,4.79,0,0,1,1.89.37,4.87,4.87,0,0,1,3,4.5,4.77,4.77,0,0,1-.38,1.92,4.56,4.56,0,0,1-1,1.54A5,5,0,0,1,130.1,222v2.08a7,7,0,0,0,2.73-.54A6.78,6.78,0,0,0,135,222a7.12,7.12,0,0,0,1.47-2.21,6.9,6.9,0,0,0,0-5.4A7.12,7.12,0,0,0,135,212.2a7,7,0,0,0-2.21-1.5,6.8,6.8,0,0,0-2.73-.56,6.67,6.67,0,0,0-2.71.56m-16,.18a7.07,7.07,0,0,0-2.2,1.49,6.87,6.87,0,0,0-1.48,2.21,6.59,6.59,0,0,0-.55,2.68h2.09a4.83,4.83,0,0,1,.38-1.89,4.81,4.81,0,0,1,4.43-3,4.88,4.88,0,0,1,1.9.38,4.79,4.79,0,0,1,1.54,1,4.68,4.68,0,0,1,1,1.54,4.83,4.83,0,0,1,.38,1.89,4.71,4.71,0,0,1-.38,1.88,4.64,4.64,0,0,1-1,1.53,4.79,4.79,0,0,1-1.54,1,4.88,4.88,0,0,1-1.9.38v2.08a6.89,6.89,0,0,0,6.39-4.18,6.88,6.88,0,0,0,.54-2.72,6.75,6.75,0,0,0-.54-2.68,6.89,6.89,0,0,0-1.49-2.21,7,7,0,0,0-2.21-1.49,6.81,6.81,0,0,0-2.69-.55,6.71,6.71,0,0,0-2.67.55M105,203.32h-2.09v20.9H105Zm-11.1,18.87a4.87,4.87,0,0,1-1.92-.38,4.72,4.72,0,0,1-1.55-1,4.84,4.84,0,0,1-1-1.54,4.94,4.94,0,0,1-.37-1.92,4.79,4.79,0,0,1,.37-1.89,4.93,4.93,0,0,1,1-1.56,4.6,4.6,0,0,1,1.55-1,4.87,4.87,0,0,1,1.92-.38,5.45,5.45,0,0,1,1.89.33,5.66,5.66,0,0,1,1.56.89,4.1,4.1,0,0,1,1,1.31,3.5,3.5,0,0,1,.37,1.59H93.85v2.09h7v-1.34a6.64,6.64,0,0,0-.55-2.69,7.41,7.41,0,0,0-1.51-2.21,7.2,7.2,0,0,0-2.21-1.5,6.6,6.6,0,0,0-2.68-.56,6.72,6.72,0,0,0-2.72.56,7.2,7.2,0,0,0-2.21,1.5,7,7,0,0,0-1.49,2.21,7,7,0,0,0,0,5.4,6.92,6.92,0,0,0,6.42,4.24Zm-11.47-6.35-1.7,3.54v.14l-4.48-9.13H73.9l6.78,13.75V224l4.09-8.16Zm-17.44,6.35a4.87,4.87,0,0,1-1.92-.38,4.72,4.72,0,0,1-1.55-1,4.84,4.84,0,0,1-1-1.54,4.94,4.94,0,0,1-.37-1.92,4.79,4.79,0,0,1,.37-1.89,4.93,4.93,0,0,1,1-1.56,4.6,4.6,0,0,1,1.55-1,4.87,4.87,0,0,1,1.92-.38,5.45,5.45,0,0,1,1.89.33,5.66,5.66,0,0,1,1.56.89,4.1,4.1,0,0,1,1,1.31,3.51,3.51,0,0,1,.38,1.59H64.94v2.09h7v-1.34a6.64,6.64,0,0,0-.55-2.69,7.41,7.41,0,0,0-1.51-2.21,7.2,7.2,0,0,0-2.21-1.5,6.6,6.6,0,0,0-2.68-.56,6.72,6.72,0,0,0-2.72.56,7.2,7.2,0,0,0-2.21,1.5,7,7,0,0,0-1.49,2.21,7,7,0,0,0,0,5.4,6.92,6.92,0,0,0,6.42,4.24Zm-13.29,1.49a7.17,7.17,0,0,0,2.21-1.49A7,7,0,0,0,55.35,220a6.8,6.8,0,0,0,.54-2.69V203.41H53.81v13.88a4.8,4.8,0,0,1-.38,1.89,4.72,4.72,0,0,1-1,1.55,4.8,4.8,0,0,1-3.46,1.4,4.87,4.87,0,0,1-1.9-.37,5,5,0,0,1-1.54-1,4.72,4.72,0,0,1-1-1.55,4.79,4.79,0,0,1-.37-1.89,4.87,4.87,0,0,1,.37-1.92,4.68,4.68,0,0,1,1-1.54,4.79,4.79,0,0,1,1.54-1,4.88,4.88,0,0,1,1.9-.38v-2.09a6.88,6.88,0,0,0-2.72.55,7,7,0,0,0-3.67,9.1,7,7,0,0,0,3.67,3.7,7.1,7.1,0,0,0,5.43,0"/><path class="cls-4" d="M204.25,197.89h4.18V165.34L232,197.89h5.17L207,156.38h-2.79Zm-40.12.17h4.56l13.47-33.56,13.08,33.56h4.84l-16.64-41.63h-2.67Zm-8.79-23.65-6.12,16-6.24-16h-4.45l-6.29,16-13.07-34.12h-4.84l16.52,41.74h3l7-18.2,7.07,18.2h2.78l9.46-23.65Zm-44.86-.06H77.1V198h33.38v-4.17H81.27v-15.3h29.21ZM77.1,160.5h33.33v-4.18H77.1ZM42,160.44h9.79a16.07,16.07,0,0,1,6.93,1.45A16.74,16.74,0,0,1,64,165.67,17.27,17.27,0,0,1,67.39,171a16.76,16.76,0,0,1,1.19,6.18,16.38,16.38,0,0,1-5.12,12.11,17.32,17.32,0,0,1-5.37,3.42,16.69,16.69,0,0,1-6.26,1.22v4.18h1.23a17.09,17.09,0,0,0,7.12-1.59,20.8,20.8,0,0,0,6.26-4.37,22,22,0,0,0,4.45-6.59,20.13,20.13,0,0,0,1.7-8.27,19.9,19.9,0,0,0-1.89-8.79,22.21,22.21,0,0,0-4.79-6.59,20.82,20.82,0,0,0-6.34-4.12,17.08,17.08,0,0,0-6.51-1.42H42Z"/><g class="cls-5"><g class="cls-11"><line class="cls-12" x1="52.67" y1="196.04" x2="42.75" y2="196.04"/></g></g><g class="cls-5"><g class="cls-13"><line class="cls-12" x1="44.82" y1="193.96" x2="44.82" y2="184.04"/></g></g><g class="cls-5"><g class="cls-14"><line class="cls-12" x1="188.59" y1="176.82" x2="182.63" y2="176.82"/></g></g><g class="cls-5"><g class="cls-15"><line class="cls-12" x1="235.87" y1="175.2" x2="235.87" y2="156.32"/></g></g></g></g></g></g></svg>